<svg id="Layer_1_1_" enable-background="new 0 0 64 64" height="512" viewBox="0 0 64 64" width="512" xmlns="http://www.w3.org/2000/svg"><path d="m50 50v-25l-18-15-18 15v25z" fill="#cce1f0"/><path d="m26.185 26.11.013-.11.396.634c3.008 4.814 4.604 10.376 4.604 16.052v.314h-2c-2.611-5.222-3.657-11.087-3.013-16.89z" fill="#5a8c35"/><path d="m14 50-12 12h60l-12-12z" fill="#54a1d6"/><path d="m37.012 26.11-.012-.11-.396.634c-3.009 4.814-4.604 10.376-4.604 16.052v.314h2c2.611-5.222 3.657-11.087 3.012-16.89z" fill="#5a8c35"/><path d="m50 50 12 12v-37h-12z" fill="#59aae2"/><path d="m29.564 39.17c-.964-2.571-3.254-4.411-5.972-4.8l-2.592-.37 8 9h2z" fill="#72b343"/><path d="m2 25h12l18-15 18 15h12l-30-23z" fill="#59aae2"/><path d="m33.448 40.539c.944-4.247.499-8.684-1.267-12.659l-1.28-2.88-.858 2.575c-1.39 4.171-1.39 8.68 0 12.85l.858 2.575h2z" fill="#72b343"/><path d="m14 25h-12v37l12-12z" fill="#59aae2"/><path d="m44 34-2.591.37c-2.718.388-5.008 2.229-5.972 4.8l-1.437 3.83h2z" fill="#72b343"/><path d="m39 43h-14c-1.105 0-2 .895-2 2s.895 2 2 2v3 5c0 1.105.895 2 2 2h10c1.105 0 2-.895 2-2v-8c1.105 0 2-.895 2-2s-.895-2-2-2z" fill="#fff"/><path d="m27 53v-5h10v-1h-10c-1.105 0-2-.895-2-2s.895-2 2-2c-1.105 0-2 0-2 0-1.105 0-2 .895-2 2s.895 2 2 2v3 5c0 1.105.895 2 2 2h10c1.105 0 2-.895 2-2h-10c-1.105 0-2-.895-2-2z" fill="#dbdbdb"/></svg>